<svg width="41" height="41" viewBox="0 0 41 41" fill="none" xmlns="http://www.w3.org/2000/svg">
<g clip-path="url(#clip0_18_3)">
<path d="M30.75 0H10.25C4.58908 0 0 4.58908 0 10.25V30.75C0 36.4109 4.58908 41 10.25 41H30.75C36.4109 41 41 36.4109 41 30.75V10.25C41 4.58908 36.4109 0 30.75 0Z" fill="#DECDF0"/>
<path d="M33.3125 10.25H17.9375C13.6918 10.25 10.25 13.6918 10.25 17.9375V33.3125C10.25 37.5582 13.6918 41 17.9375 41H33.3125C37.5582 41 41 37.5582 41 33.3125V17.9375C41 13.6918 37.5582 10.25 33.3125 10.25Z" fill="#9C6AD1"/>
<path d="M35.875 23.0625H28.1875C25.357 23.0625 23.0625 25.357 23.0625 28.1875V35.875C23.0625 38.7055 25.357 41 28.1875 41H35.875C38.7055 41 41 38.7055 41 35.875V28.1875C41 25.357 38.7055 23.0625 35.875 23.0625Z" fill="#5A06B3"/>
</g>
<defs>
<clipPath id="clip0_18_3">
<rect width="41" height="41" fill="white"/>
</clipPath>
</defs>
</svg>
